Coordinates
version=1
nRows=9
nColumns=24
inDegrees=yes

Units are S.I. units (second, meters, Newtons, ...)
Angles are in degrees.

endheader
time	pelvis_tilt	pelvis_list	pelvis_rotation	pelvis_tx	pelvis_ty	pelvis_tz	hip_flexion_r	hip_adduction_r	hip_rotation_r	knee_angle_r	ankle_angle_r	subtalar_angle_r	mtp_angle_r	hip_flexion_l	hip_adduction_l	hip_rotation_l	knee_angle_l	ankle_angle_l	subtalar_angle_l	mtp_angle_l	lumbar_extension	lumbar_bending	lumbar_rotation
      0.96166667	     -2.19781530	      0.06116626	      1.97614021	     -0.36786245	      1.00462683	      0.36624966	     12.37550937	      2.33736308	      0.02369219	    -20.17252882	     12.12913538	    -11.37469616	     -0.90972675	     17.64148444	     -1.00905217	     -0.24847141	    -67.81552334	     -1.54935205	    -11.90077548	      1.82362274	    -10.70589517	      8.27170927	     -1.36897675
      0.96583333	     -2.19078039	      0.19537823	      1.85344193	     -0.36337843	      1.00548078	      0.36675800	     11.87681869	      2.22750364	      0.03238483	    -19.72885972	     12.16177097	    -11.19596755	     -0.89967831	     18.12647656	     -0.89843258	     -0.39094423	    -67.36645573	     -0.88910223	    -11.61425672	      1.79108460	    -10.77755926	      8.06756915	     -1.15880396
      0.97000000	     -2.16788491	      0.32612202	      1.73425566	     -0.35889342	      1.00632897	      0.36724770	     11.35849987	      2.11748494	      0.03045919	    -19.27739712	     12.19363712	    -11.01011115	     -0.88605682	     18.58398176	     -0.79171082	     -0.52525696	    -66.87336523	     -0.25736340	    -11.31408089	      1.75833432	    -10.86487403	      7.86697577	     -0.95183904
      0.97416667	     -2.16296777	      0.45676569	      1.61592782	     -0.35442019	      1.00709548	      0.36771951	     10.86790316	      2.00389571	      0.02418953	    -18.84144617	     12.23019358	    -10.81351233	     -0.86980445	     19.05403828	     -0.68289029	     -0.65104853	    -66.34591368	      0.34620131	    -11.00211157	      1.73020899	    -10.93362383	      7.67031166	     -0.75712714
      0.97833333	     -2.14190628	      0.58402626	      1.49790197	     -0.34993668	      1.00785235	      0.36817619	     10.35871319	      1.89036046	      0.00561830	    -18.40134384	     12.26778985	    -10.60953554	     -0.85041326	     19.49408454	     -0.57935412	     -0.77270825	    -65.77499031	      0.91751007	    -10.68746833	      1.70315407	    -11.01344258	      7.48249010	     -0.56767144
      0.98250000	     -2.11976079	      0.69666219	      1.38298786	     -0.34545959	      1.00856375	      0.36861539	      9.84875315	      1.78977753	     -0.01835452	    -17.95812806	     12.29695395	    -10.41011580	     -0.82796829	     19.92612138	     -0.49155929	     -0.88307818	    -65.17106938	      1.46007911	    -10.36181840	      1.67820458	    -11.09349590	      7.31335406	     -0.38351590
      0.98666667	     -2.09838080	      0.81650517	      1.26911252	     -0.34098378	      1.00923136	      0.36903061	      9.34568389	      1.67714569	     -0.05239690	    -17.52699667	     12.33108780	    -10.20035292	     -0.80257808	     20.34750868	     -0.39310163	     -0.98740220	    -64.52619943	      1.96001567	    -10.04553251	      1.65527834	    -11.16953738	      7.13990218	     -0.21091913
      0.99083333	     -2.08898559	      0.93037851	      1.15481506	     -0.33651221	      1.00981828	      0.36943984	      8.86211450	      1.56886929	     -0.09136458	    -17.10912006	     12.38384953	     -9.97734104	     -0.77243727	     20.77432739	     -0.30255971	     -1.08753565	    -63.85270687	      2.42585972	     -9.73163573	      1.63255696	    -11.23037802	      6.96646972	     -0.03761082
      0.99500000	     -2.07004890	      1.01611903	      1.04781580	     -0.33203588	      1.01038270	      0.36983669	      8.36103283	      1.48959240	     -0.13512696	    -16.67303625	     12.42435743	     -9.76221168	     -0.73704373	     21.18452737	     -0.24265857	     -1.17114797	    -63.15205210	      2.85936890	     -9.42282879	      1.60853381	    -11.30258158	      6.81672024	      0.13836885
